<svg xmlns="http://www.w3.org/2000/svg" viewBox="0 0 640 360" width="640" height="360"><defs><linearGradient id="wall" x1="0" y1="0" x2="0" y2="1"><stop offset="0" stop-color="#2b0f3a"/><stop offset="1" stop-color="#100720"/></linearGradient><linearGradient id="surface" x1="0" y1="0" x2="0" y2="1"><stop offset="0" stop-color="#7b2f8f"/><stop offset="1" stop-color="#43154f"/></linearGradient><radialGradient id="lamp" cx="0.5" cy="0.1" r="0.75"><stop offset="0" stop-color="#ff5d73" stop-opacity="0.34"/><stop offset="1" stop-color="#ff5d73" stop-opacity="0"/></radialGradient><filter id="grain"><feTurbulence type="fractalNoise" baseFrequency="0.9" numOctaves="2"/></filter></defs><rect width="640" height="360" fill="url(#wall)"/><rect width="640" height="360" fill="url(#lamp)"/><rect y="237.6" width="640" height="122.4" fill="url(#surface)"/><rect y="237.6" width="640" height="3" fill="#000" opacity="0.28"/><ellipse cx="320" cy="234.1" rx="19.9" ry="3.7" fill="#000" opacity="0.24"/><ellipse cx="460.8" cy="249.2" rx="44.7" ry="8.3" fill="#000" opacity="0.24"/><ellipse cx="377.6" cy="259.8" rx="27.8" ry="5.2" fill="#000" opacity="0.24"/><ellipse cx="547.2" cy="259.8" rx="24.6" ry="4.6" fill="#000" opacity="0.24"/><ellipse cx="160" cy="264.3" rx="51.3" ry="9.5" fill="#000" opacity="0.24"/><ellipse cx="604.8" cy="267.4" rx="17.9" ry="3.3" fill="#000" opacity="0.24"/><svg xmlns="http://www.w3.org/2000/svg" viewBox="0 0 64 64" class="overflow-visible " role="img" aria-label="Frisbee" stroke-linecap="round" stroke-linejoin="round" x="283.2" y="162.5" width="73.6" height="73.6" preserveAspectRatio="xMidYMax meet"><ellipse cx="32" cy="34" rx="28" ry="12" fill="#f97316" stroke="#1b1b23" stroke-width="2"></ellipse><ellipse cx="32" cy="30" rx="20" ry="8" fill="#fdba74" stroke="#1b1b23" stroke-width="1.5"></ellipse><ellipse cx="32" cy="30" rx="8" ry="3" fill="#ea580c"></ellipse></svg><svg xmlns="http://www.w3.org/2000/svg" viewBox="0 0 64 64" class="overflow-visible " role="img" aria-label="Tennis racket" stroke-linecap="round" stroke-linejoin="round" x="378" y="85.6" width="165.6" height="165.6" preserveAspectRatio="xMidYMax meet"><ellipse cx="32" cy="22" rx="18" ry="20" fill="#bef264" stroke="#1b1b23" stroke-width="2"></ellipse><path d="M20 12v20M26 8v28M32 6v32M38 8v28M44 12v20M16 16h32M15 22h34M16 30h32" stroke="#65a30d" stroke-width="1.5"></path><path d="M32 42v18" stroke="#1b1b23" stroke-width="6"></path><path d="M32 48v12" stroke="#dc2626" stroke-width="4"></path></svg><svg xmlns="http://www.w3.org/2000/svg" viewBox="0 0 64 64" class="overflow-visible " role="img" aria-label="Dumbbell" stroke-linecap="round" stroke-linejoin="round" x="326.1" y="158.8" width="103" height="103" preserveAspectRatio="xMidYMax meet"><rect x="20" y="28" width="24" height="8" rx="3" fill="#94a3b8" stroke="#1b1b23" stroke-width="2"></rect><rect x="6" y="18" width="12" height="28" rx="4" fill="#334155" stroke="#1b1b23" stroke-width="2"></rect><rect x="46" y="18" width="12" height="28" rx="4" fill="#334155" stroke="#1b1b23" stroke-width="2"></rect><rect x="2" y="24" width="6" height="16" rx="3" fill="#475569" stroke="#1b1b23" stroke-width="2"></rect><rect x="56" y="24" width="6" height="16" rx="3" fill="#475569" stroke="#1b1b23" stroke-width="2"></rect></svg><svg xmlns="http://www.w3.org/2000/svg" viewBox="0 0 64 64" class="overflow-visible " role="img" aria-label="Bowling pin" stroke-linecap="round" stroke-linejoin="round" x="501.7" y="170.7" width="91.1" height="91.1" preserveAspectRatio="xMidYMax meet"><path d="M32 4c6 0 8 8 6 14s-2 8 2 14 4 22-8 26-12-20-8-26 4-8 2-14 0-14 6-14z" fill="#f8fafc" stroke="#1b1b23" stroke-width="2"></path><path d="M26 20h12M25 26h14" stroke="#dc2626" stroke-width="3"></path></svg><svg xmlns="http://www.w3.org/2000/svg" viewBox="0 0 64 64" class="overflow-visible " role="img" aria-label="Yoga mat" stroke-linecap="round" stroke-linejoin="round" x="65" y="76.3" width="190" height="190" preserveAspectRatio="xMidYMax meet"><rect x="4" y="30" width="42" height="14" rx="6" fill="#a855f7" stroke="#1b1b23" stroke-width="2"></rect><circle cx="48" cy="37" r="14" fill="#c084fc" stroke="#1b1b23" stroke-width="2"></circle><circle cx="48" cy="37" r="6" fill="#7e22ce" stroke="#1b1b23" stroke-width="1.5"></circle><path d="M10 37h30" stroke="#7e22ce" stroke-width="2"></path></svg><svg xmlns="http://www.w3.org/2000/svg" viewBox="0 0 64 64" class="overflow-visible " role="img" aria-label="Boxing glove" stroke-linecap="round" stroke-linejoin="round" x="571.7" y="203.1" width="66.2" height="66.2" preserveAspectRatio="xMidYMax meet"><path d="M12 24a20 20 0 0134-10c8 8 8 24-2 30l-4 12H20l-4-12c-3-4-4-8-4-20z" fill="#dc2626" stroke="#1b1b23" stroke-width="2"></path><path d="M12 30h12a8 8 0 010 12H16" fill="#dc2626" stroke="#1b1b23" stroke-width="2"></path><rect x="18" y="50" width="26" height="8" rx="3" fill="#f8fafc" stroke="#1b1b23" stroke-width="2"></rect></svg><rect width="640" height="360" filter="url(#grain)" opacity="0.06"/><title>Gym Bag Dump — 6 objects</title></svg>
